# xmcd CD database file
#
# Track frame offsets:
#	150
#	9397
#	36375
#	64443
#	83774
#	95860
#	101727
#	113740
#	131630
#	140965
#
# Disc length: 2263 seconds
#
# Revision: 0
# Processed by: cddbd v1.5.2PL0 Copyright (c) Steve Scherf et al.
# Submitted via: CDex 1.51
#
DISCID=9308d50a
DTITLE=Claudio Cojaniz, Francesco Bearzatti - Beat Spirit
DYEAR=2009
DGENRE=Jazz
TTITLE0=Tanx
TTITLE1=Busy Street
TTITLE2=Funeral X
TTITLE3=Black Panther
TTITLE4=Electric Woodoo
TTITLE5=Snap
TTITLE6=Sexy Brinjevec
TTITLE7=Blue Dynamo in a Starry Night
TTITLE8=Bandoneon
TTITLE9=Habanera
EXTD=YEAR: 2009
EXTT0=
EXTT1=
EXTT2=
EXTT3=
EXTT4=
EXTT5=
EXTT6=
EXTT7=
EXTT8=
EXTT9=
PLAYORDER=
